# xmcd
#
# Track frame offsets: 
#        150
#        12054
#        37273
#        61164
#        80344
#        105582
#        122896
#        137517
#        162049
#        184928
#        206125
#
# Disc length: 3039 seconds
#
# Revision: 0
# Processed by: cddbd v1.5.2PL0 Copyright (c) Steve Scherf et al.
# Submitted via: ExactAudioCopy v1.0b1
#
DISCID=8f0bdd0b
DTITLE=Mario Biondi - Yes Live 
DYEAR=2010
DGENRE=Blues
TTITLE0=Intro Medley
TTITLE1=Nature Boy
TTITLE2=Serenity
TTITLE3=Something That Was Beautiful
TTITLE4=Black Shop
TTITLE5=Be Lonely
TTITLE6=Little Bs Poem
TTITLE7=Cry Anymore
TTITLE8=Winter In America
TTITLE9=Love Dreamer
TTITLE10=Ecstasy
EXTD=
EXTT0=
EXTT1=
EXTT2=
EXTT3=
EXTT4=
EXTT5=
EXTT6=
EXTT7=
EXTT8=
EXTT9=
EXTT10=
PLAYORDER=
